<svg xmlns="http://www.w3.org/2000/svg" xmlns:xlink="http://www.w3.org/1999/xlink" version="1.1" id="Capa_1" x="0px" y="0px" viewBox="0 0 512 512" style="enable-background:new 0 0 512 512;" xml:space="preserve">
<path style="fill:#CFD8DC;" d="M266.667,0h-256C4.776,0,0,4.776,0,10.667v256c0,5.891,4.776,10.667,10.667,10.667h234.667  c5.891,0,10.667-4.776,10.667-10.667V256h10.667c5.891,0,10.667-4.776,10.667-10.667V10.667C277.333,4.776,272.558,0,266.667,0z">
	<text/>
</path>
	<path style="fill:#2196F3;" d="M245.333,234.667h256c5.891,0,10.667,4.776,10.667,10.667v256c0,5.891-4.776,10.667-10.667,10.667  h-256c-5.891,0-10.667-4.776-10.667-10.667v-256C234.667,239.442,239.442,234.667,245.333,234.667z"/>

	<g>
	<path style="fill:#455A64;" d="M458.667,213.333c-5.891,0-10.667-4.776-10.667-10.667C447.906,126.122,385.878,64.094,309.333,64   c-5.891,0-10.667-4.776-10.667-10.667s4.776-10.667,10.667-10.667c88.327,0.094,159.906,71.673,160,160   C469.333,208.558,464.558,213.333,458.667,213.333z"/>
		<path style="fill:#455A64;" d="M458.667,213.333c-2.831,0.005-5.548-1.115-7.552-3.115l-42.667-42.667   c-4.093-4.237-3.975-10.99,0.262-15.083c4.134-3.993,10.687-3.993,14.821,0l33.984,33.984l24.619-32.853   c3.529-4.717,10.214-5.68,14.931-2.151s5.68,10.214,2.151,14.931c-0.005,0.007-0.01,0.013-0.015,0.02l-32,42.667   c-1.852,2.486-4.694,4.044-7.787,4.267L458.667,213.333z"/>
		<path style="fill:#455A64;" d="M202.667,469.333c-88.327-0.094-159.906-71.673-160-160c0-5.891,4.776-10.667,10.667-10.667   S64,303.442,64,309.333C64.094,385.878,126.122,447.906,202.667,448c5.891,0,10.667,4.776,10.667,10.667   C213.333,464.558,208.558,469.333,202.667,469.333z"/>
		<path style="fill:#455A64;" d="M21.333,362.667c-5.891,0-10.667-4.776-10.667-10.667c0-2.308,0.749-4.554,2.133-6.4l32-42.667   c3.529-4.717,10.213-5.681,14.931-2.152c0.408,0.305,0.794,0.64,1.155,1l42.667,42.667c4.237,4.093,4.355,10.845,0.262,15.083   c-4.093,4.237-10.845,4.354-15.083,0.262c-0.089-0.086-0.176-0.173-0.262-0.262l-33.984-33.963L29.867,358.4   C27.852,361.086,24.691,362.667,21.333,362.667z"/>
</g>















</svg>