<?xml version="1.0" encoding="UTF-8"?>
<svg xmlns="http://www.w3.org/2000/svg" xmlns:xlink="http://www.w3.org/1999/xlink" width="512" height="512" viewBox="0 0 58 59" version="1.1"><!-- Generator: Sketch 51.3 (57544) - http://www.bohemiancoding.com/sketch --><title>009 - Podium </title><desc>Created with Sketch.</desc><defs/><g id="Page-1" stroke="none" stroke-width="1" fill="none" fill-rule="evenodd"><g id="009---Podium-" transform="translate(0.000000, -1.000000)" fill-rule="nonzero"><path d="M35.632,35 L56,35 L56,59 C56,59.5522847 55.5522847,60 55,60 L35.632,60 L35.632,35 Z" id="Shape" fill="#BDC3C7"/><path d="M24.949,14.2 C24.7500613,14.200241 24.5556458,14.1406621 24.391,14.029 C21.742,12.243 17.26,8.168 17.26,4.229 C17.2101454,3.30969487 17.5610306,2.41387978 18.222,1.773 C18.8148424,1.25223523 19.5832796,0.975955275 20.372,1 C22.273,1 24.4,2.381 24.4,4.23 C24.4,4.78228475 23.9522847,5.23 23.4,5.23 C22.8477153,5.23 22.4,4.78228475 22.4,4.23 C22.4,3.715 21.379,3 20.372,3 C20.0840778,2.9841854 19.8000883,3.07257711 19.572,3.249 C19.3359682,3.5187454 19.2226012,3.87442081 19.259,4.231 C19.259,7.111 22.996,10.678 25.509,12.372 C25.8737437,12.618057 26.0348123,13.073605 25.9057923,13.4942425 C25.7767722,13.9148799 25.3879789,14.2017716 24.948,14.201 L24.949,14.2 Z" id="Shape" fill="#F29C1F"/><path d="M33.051,14.2 C32.6110211,14.2007716 32.2222278,13.9138799 32.0932077,13.4932425 C31.9641877,13.072605 32.1252563,12.617057 32.49,12.371 C35,10.677 38.74,7.11 38.74,4.23 C38.7763988,3.87342081 38.6630318,3.5177454 38.427,3.248 C38.1989117,3.07157711 37.9149222,2.9831854 37.627,2.999 C36.621,3 35.6,3.715 35.6,4.23 C35.6,4.78228475 35.1522847,5.23 34.6,5.23 C34.0477153,5.23 33.6,4.78228475 33.6,4.23 C33.6,2.381 35.727,1 37.628,1 C38.4168545,0.976230213 39.1853081,1.25287352 39.778,1.774 C40.4389694,2.41487978 40.7898546,3.31069487 40.74,4.23 C40.74,8.168 36.258,12.243 33.609,14.03 C33.4442406,14.1413083 33.2498339,14.2005362 33.051,14.2 Z" id="Shape" fill="#F29C1F"/><path d="M23.368,2.654 C19.527,8.064 27.968,18.591 26.068,24 L29.045,26 L31.938,24 C30.038,18.591 38.476,8.064 34.638,2.654 C34.359776,2.26450243 33.9106616,2.03324204 33.432,2.033 L24.574,2.033 C24.0953384,2.03324204 23.646224,2.26450243 23.368,2.654 Z" id="Shape" fill="#F0C419"/><path d="M26.653,11 C26.3189109,11.0002731 26.0067535,10.8336891 25.821,10.556 C24.7504814,8.87894076 24.7504814,6.73305924 25.821,5.056 C26.130565,4.6068334 26.7429935,4.4886398 27.197472,4.79035237 C27.6519504,5.09206495 27.780769,5.70234699 27.487,6.162 C26.8606888,7.16816278 26.8606888,8.44283722 27.487,9.449 C27.6897175,9.75602128 27.7074776,10.1495588 27.5332393,10.4735919 C27.359001,10.797625 27.0209081,10.9998141 26.653,11 Z" id="Shape" fill="#F3D55B"/><path d="M2,40.357 L22.032,40.357 L22.032,60 L3,60 C2.44771525,60 2,59.5522847 2,59 L2,40.357 Z" id="Shape" fill="#F29C1F"/><rect id="Rectangle-path" fill="#F0C419" x="20" y="29.993" width="18" height="30.007"/><path d="M24.2,24 L33.8,24 C35.0150264,24 36,24.9849736 36,26.2 L36,27.271 C36,27.6752724 35.6722724,28.003 35.268,28.003 L22.732,28.003 C22.5373406,28.0030016 22.3506975,27.9254687 22.2133343,27.7875426 C22.0759711,27.6496164 21.9992022,27.4626577 22,27.268 L22,26.2 C22,24.9849736 22.9849736,24 24.2,24 Z" id="Shape" fill="#F29C1F"/><path d="M11,52 C10.4477153,52 10,51.5522847 10,51 C10,50.4477153 10.4477153,50 11,50 C11.9405209,50 12.7539671,49.3446854 12.9541657,48.4257185 C13.1543643,47.5067517 12.6872172,46.5724575 11.8319246,46.1812363 C10.976632,45.790015 9.96431254,46.0475833 9.4,46.8 C9.06862915,47.2418278 8.4418278,47.3313708 8,47 C7.5581722,46.6686292 7.46862915,46.0418278 7.8,45.6 C8.92862508,44.0951666 10.9532639,43.5800301 12.6638492,44.3624726 C14.3744345,45.144915 15.3087287,47.0135034 14.9083315,48.8514371 C14.5079343,50.6893708 12.8810418,52 11,52 Z" id="Shape" fill="#D25627"/><path d="M11,58 C9.93887383,58.0020078 8.92099329,57.5796612 8.173,56.827 C7.91304342,56.5759255 7.8087874,56.2041221 7.90030284,55.8544927 C7.99181828,55.5048632 8.26486324,55.2318183 8.61449268,55.1403028 C8.96412211,55.0487874 9.33592553,55.1530434 9.587,55.413 C10.2268948,56.0539921 11.2176795,56.1849474 12.0021353,55.7322164 C12.786591,55.2794853 13.1688813,54.3560906 12.9340055,53.4813509 C12.6991296,52.6066111 11.9057235,51.998902 11,52 C10.4477153,52 10,51.5522847 10,51 C10,50.4477153 10.4477153,50 11,50 C13.209139,50 15,51.790861 15,54 C15,56.209139 13.209139,58 11,58 Z" id="Shape" fill="#D25627"/><path d="M11,52 L10,52 C9.44771525,52 9,51.5522847 9,51 C9,50.4477153 9.44771525,50 10,50 L11,50 C11.5522847,50 12,50.4477153 12,51 C12,51.5522847 11.5522847,52 11,52 Z" id="Shape" fill="#D25627"/><path d="M29,58 C28.4477153,58 28,57.5522847 28,57 L28,47.414 L26.707,48.707 C26.3146211,49.0859722 25.6909152,49.0805524 25.3051814,48.6948186 C24.9194476,48.3090848 24.9140278,47.6853789 25.293,47.293 L28.293,44.293 C28.5789943,44.0070921 29.0090366,43.9215781 29.3826546,44.076322 C29.7562725,44.2310659 29.9999137,44.5956041 30,45 L30,57 C30,57.5522847 29.5522847,58 29,58 Z" id="Shape" fill="#B19046"/><path d="M32,58 L26,58 C25.4477153,58 25,57.5522847 25,57 C25,56.4477153 25.4477153,56 26,56 L32,56 C32.5522847,56 33,56.4477153 33,57 C33,57.5522847 32.5522847,58 32,58 Z" id="Shape" fill="#B19046"/><path d="M44,58 C43.4477153,58 43,57.5522847 43,57 C42.9431928,55.4515698 43.4977934,53.9429413 44.544,52.8 C45.1441423,52.1976845 45.8030971,51.6569864 46.511,51.186 C47.1534011,50.7662407 47.7467664,50.2758505 48.28,49.724 C48.7211017,49.255646 48.9769803,48.642959 49,48 C49,46.8954305 48.1045695,46 47,46 C45.8954305,46 45,46.8954305 45,48 C45,48.5522847 44.5522847,49 44,49 C43.4477153,49 43,48.5522847 43,48 C43,45.790861 44.790861,44 47,44 C49.209139,44 51,45.790861 51,48 C50.9844143,49.134775 50.5482562,50.2233886 49.776,51.055 C49.1452232,51.7227565 48.438794,52.3147475 47.671,52.819 C47.0713963,53.2158126 46.511767,53.6699463 46,54.175 C45.3052883,54.9468308 44.9455853,55.9629917 45,57 C45,57.2652165 44.8946432,57.5195704 44.7071068,57.7071068 C44.5195704,57.8946432 44.2652165,58 44,58 Z" id="Shape" fill="#7F8C8D"/><path d="M50,58 L44,58 C43.4477153,58 43,57.5522847 43,57 C43,56.4477153 43.4477153,56 44,56 L50,56 C50.5522847,56 51,56.4477153 51,57 C51,57.5522847 50.5522847,58 50,58 Z" id="Shape" fill="#7F8C8D"/><path d="M1,38 L20,38 L20,42 L1,42 C0.44771525,42 0,41.5522847 0,41 L0,39 C-1.11022302e-16,38.4477153 0.44771525,38 1,38 Z" id="Shape" fill="#D25627"/><path d="M38,33 L57,33 C57.5522847,33 58,33.4477153 58,34 L58,36 C58,36.5522847 57.5522847,37 57,37 L38,37 L38,33 Z" id="Shape" fill="#7F8C8D"/><rect id="Rectangle-path" fill="#B19046" x="19" y="28" width="20" height="4" rx="1"/><path d="M25,37 L24,37 C23.4477153,37 23,36.5522847 23,36 C23,35.4477153 23.4477153,35 24,35 L25,35 C25.5522847,35 26,35.4477153 26,36 C26,36.5522847 25.5522847,37 25,37 Z" id="Shape" fill="#F3D55B"/><path d="M34,37 L29,37 C28.4477153,37 28,36.5522847 28,36 C28,35.4477153 28.4477153,35 29,35 L34,35 C34.5522847,35 35,35.4477153 35,36 C35,36.5522847 34.5522847,37 34,37 Z" id="Shape" fill="#F3D55B"/></g></g></svg>
