<!---->
<svg style="filter:brightness(.9);" xmlns="http://www.w3.org/2000/svg" height="511pt" viewBox="1 -8 511.99913 511" width="511pt">
    <path d="m224.355469 235.433594c-.1875 0-.371094-.003906-.558594-.019532-44.433594-2.964843-83.410156-39.417968-83.410156-78.011718 0-18.214844 14.816406-33.035156 33.03125-33.035156 4.40625 0 27.066406 1.453124 40.507812 30.144531 1.9375 4.128906.164063 9.042969-3.964843 10.976562-4.15625 1.953125-9.050782.15625-10.984376-3.96875-9.402343-20.054687-23.929687-20.632812-25.558593-20.632812-9.101563 0-16.515625 7.40625-16.515625 16.515625 0 29.828125 32.414062 59.160156 67.992187 61.535156 4.550781.300781 7.992188 4.238281 7.695313 8.785156-.292969 4.363282-3.929688 7.710938-8.234375 7.710938zm0 0" fill="#ffc250"/><path d="m287.644531 235.433594c.183594 0 .371094-.003906.554688-.019532 44.4375-2.964843 83.414062-39.417968 83.414062-78.011718 0-18.214844-14.816406-33.035156-33.035156-33.035156-4.402344 0-27.0625 1.453124-40.507813 30.144531-1.933593 4.128906-.160156 9.042969 3.96875 10.976562 4.152344 1.953125 9.046876.15625 10.984376-3.96875 9.402343-20.054687 23.925781-20.632812 25.554687-20.632812 9.105469 0 16.515625 7.40625 16.515625 16.515625 0 29.828125-32.410156 59.160156-67.988281 61.535156-4.550781.300781-7.992188 4.238281-7.695313 8.785156.292969 4.363282 3.929688 7.710938 8.234375 7.710938zm0 0" fill="#ffd064"/><path d="m313.804688 388.628906h-115.609376c-9.121093 0-16.519531 7.394532-16.519531 16.515625v16.515625l74.324219 33.644532 74.324219-33.644532v-16.515625c0-9.121093-7.398438-16.515625-16.519531-16.515625zm0 0" fill="#ffd064"/><path d="m261.902344 423.238281-2.367188 2.367188c-1.953125 1.953125-5.117187 1.953125-7.070312 0l-2.375-2.375c-9.671875-9.679688-21.707032-15.992188-34.808594-18.242188-10.824219-1.863281-21.226562-4.6875-31.238281-8.238281-1.46875 2.46875-2.367188 5.316406-2.367188 8.394531v16.515625l74.324219 33.644532 74.324219-33.644532v-16.515625c0-3.078125-.898438-5.925781-2.363281-8.394531-10.015626 3.550781-20.414063 6.375-31.242188 8.234375-13.101562 2.253906-25.140625 8.566406-34.816406 18.253906zm0 0" fill="#ffc250"/><path d="m272.515625 273.015625c0-8.257813 0-33.03125 0-33.03125h-33.03125v33.03125c0 41.289063-24.773437 66.0625-24.773437 66.0625h82.578124s-24.773437-24.773437-24.773437-66.0625zm0 0" fill="#ffd064"/><path d="m256 239.984375h-16.515625v33.03125c0 41.289063-24.773437 66.0625-24.773437 66.0625h41.289062zm0 0" fill="#ffc250"/><path d="m189.933594 149.144531v41.289063c0 27.367187 22.183594 49.546875 49.550781 49.546875h33.03125c27.363281 0 49.546875-22.183594 49.546875-49.546875v-41.289063c0-4.5625-3.695312-8.257812-8.257812-8.257812h-115.609376c-4.5625 0-8.261718 3.695312-8.261718 8.257812zm0 0" fill="#fdd145"/><path xmlns="http://www.w3.org/2000/svg" d="m274.257812 198.691406v-16.515625c4.566407 0 8.257813-3.699219 8.257813-8.257812 0-4.5625-3.695313-8.257813-8.257813-8.257813h-16.515624c-4.566407 0-8.257813 3.695313-8.257813 8.257813 0 4.558593 3.691406 8.257812 8.257813 8.257812v16.515625c-4.566407 0-8.257813 3.699219-8.257813 8.257813 0 4.558593 3.691406 8.257812 8.257813 8.257812h16.515624c4.566407 0 8.257813-3.699219 8.257813-8.257812 0-4.558594-3.691406-8.257813-8.257813-8.257813zm0 0" fill="#fff5d7"/>
    <path xmlns="http://www.w3.org/2000/svg" d="m254.257812 198.691406v-16.515625c4.566407 0 8.257813-3.699219 8.257813-8.257812 0-4.5625-3.695313-8.257813-8.257813-8.257813h-16.515624c-4.566407 0-8.257813 3.695313-8.257813 8.257813 0 4.558593 3.691406 8.257812 8.257813 8.257812v16.515625c-4.566407 0-8.257813 3.699219-8.257813 8.257813 0 4.558593 3.691406 8.257812 8.257813 8.257812h16.515624c4.566407 0 8.257813-3.699219 8.257813-8.257812 0-4.558594-3.691406-8.257813-8.257813-8.257813zm0 0" fill="#fff5d7"/><path d="m272.515625 285.402344h-33.03125c-6.839844 0-12.386719-5.546875-12.386719-12.386719 0-6.84375 5.546875-12.390625 12.386719-12.390625h33.03125c6.839844 0 12.386719 5.546875 12.386719 12.390625 0 6.839844-5.546875 12.386719-12.386719 12.386719zm0 0" fill="#fdd145"/><path d="m256 116.722656c-4.566406 0-8.257812-3.695312-8.257812-8.257812v-41.289063c0-4.558593 3.695312-8.257812 8.257812-8.257812s8.257812 3.699219 8.257812 8.257812v41.289063c0 4.5625-3.691406 8.257812-8.257812 8.257812zm0 0" fill="#ffeaa8"/><path d="m222.976562 116.722656c-3.03125 0-5.945312-1.667968-7.394531-4.5625l-8.257812-16.515625c-2.042969-4.082031-.386719-9.042969 3.691406-11.082031 4.089844-2.035156 9.03125-.386719 11.082031 3.695312l8.257813 16.515626c2.039062 4.078124.386719 9.039062-3.695313 11.078124-1.183594.59375-2.441406.871094-3.683594.871094zm0 0" fill="#fff5d7"/><path d="m289.023438 116.722656c-1.242188 0-2.5-.277344-3.683594-.871094-4.082032-2.039062-5.734375-7-3.695313-11.078124l8.257813-16.515626c2.046875-4.082031 7.007812-5.730468 11.082031-3.695312 4.082031 2.039062 5.734375 7 3.691406 11.082031l-8.257812 16.515625c-1.449219 2.894532-4.363281 4.5625-7.394531 4.5625zm0 0" fill="#fff5d7"/><g fill="#b3e59f"><path d="m458.683594 206.480469c-9.359375-14.777344-21.261719-19.589844-30.132813-17.472657 1.910157 14.105469 6.816407 29.929688 14.152344 44.6875 7.359375 14.644532 16.015625 24.730469 25.21875 25.882813 3.480469-17.289063.140625-38.445313-9.238281-53.097656zm0 0"/><path d="m421.851562 96.757812c-15.753906-7.335937-28.617187-4.777343-34.992187 1.917969 9.371094 10.820313 21.777344 21.539063 35.507813 30.03125 13.691406 8.386719 26.070312 12.183594 34.480468 8.066407-5.683594-16.648438-19.285156-32.804688-34.996094-40.015626zm0 0"/><path d="m434.527344 319.902344c-.414063-17.75-8.160156-28.449219-16.753906-31.554688-5.445313 13.066406-9.347657 29.25-10.957032 45.804688-1.523437 16.464844.21875 29.738281 7.441406 35.8125 12.539063-12.613282 20.769532-32.410156 20.269532-50.0625zm0 0"/><path d="m231.839844 496.59375c-2.113282 0-4.226563-.804688-5.839844-2.417969-3.226562-3.226562-3.226562-8.453125 0-11.675781l47.589844-47.589844c7.25-7.257812 16.214844-11.976562 25.925781-13.644531 79.742187-13.699219 138.636719-69.667969 157.554687-149.726563 20.023438-84.765624-5.976562-175.804687-88.554687-233.609374-3.734375-2.613282-32.636719-16.628907-29.933594-20.300782 2.699219-3.671875 27.105469 6.488282 30.964844 8.945313 90.839844 57.804687 125.121094 157.636719 103.597656 248.761719-20.484375 86.710937-84.347656 147.347656-170.828125 162.203124-6.324218 1.089844-12.21875 4.21875-17.050781 9.046876l-47.589844 47.589843c-1.609375 1.613281-3.722656 2.417969-5.835937 2.417969zm0 0"/></g><path d="m482.070312 248.949219c10.332032-15.828125 20.679688-25.441407 29.929688-24.484375.074219 21.015625-7.726562 44.855468-20.503906 60.171875-9.808594 11.863281-19.898438 16.75-27.773438 16.535156-3.40625-.09375-5.816406-3.425781-4.609375-6.609375 5.730469-15.117188 13.675781-31.28125 22.957031-45.613281zm0 0" fill="#ccf49f"/><path d="m463.539062 119.890625c.792969-19.195313 4.585938-33.082031 12.941407-37.394531 10.902343 17.8125 16.179687 42.453125 12.9375 62.558594-2.410157 15.351562-8.4375 25.035156-15.148438 29.285156-2.964843 1.878906-6.941406.191406-7.515625-3.269532-2.628906-15.929687-3.867187-33.96875-3.214844-51.179687zm0 0" fill="#ccf49f"/><path d="m341.113281 7.160156c-20.222656-7.261718-41.585937-8.007812-57.222656-5-3.554687.683594-4.144531 5.558594-.8125 6.980469 13.984375 5.953125 31.851563 11.917969 49.941406 18.410156 18.410157 6.460938 34.316407 12.234375 47.089844 15.183594 3.320313.765625 5.734375-3.019531 3.75-5.792969-7.769531-10.847656-22.320313-22.609375-42.746094-29.78125zm0 0" fill="#ccf49f"/><path d="m432.109375 368.847656c17.316406-7.644531 31.023437-10.089844 38.398437-4.152344-10.855468 17.878907-30.433593 33.671876-50.195312 39.378907-15.34375 4.507812-27.105469 2.871093-33.789062-1.789063-2.757813-1.917968-2.621094-6.105468.171874-7.972656 13.960938-9.359375 29.808594-18.511719 45.414063-25.464844zm0 0" fill="#ccf49f"/><path d="m266.984375 441.515625-40.984375 40.980469c-3.226562 3.226562-3.226562 8.453125 0 11.679687 1.613281 1.613281 3.726562 2.417969 5.839844 2.417969 2.113281 0 4.226562-.804688 5.835937-2.417969l40.984375-40.984375zm0 0" fill="#95d6a4"/><path d="m53.316406 206.480469c9.359375-14.777344 21.261719-19.589844 30.128906-17.472657-1.910156 14.105469-6.8125 29.929688-14.148437 44.6875-7.359375 14.644532-16.015625 24.730469-25.21875 25.882813-3.480469-17.289063-.140625-38.445313 9.238281-53.097656zm0 0" fill="#b3e59f"/><path d="m90.148438 96.757812c15.753906-7.335937 28.617187-4.777343 34.992187 1.917969-9.371094 10.820313-21.777344 21.539063-35.511719 30.03125-13.6875 8.386719-26.066406 12.183594-34.476562 8.066407 5.679687-16.648438 19.285156-32.804688 34.996094-40.015626zm0 0" fill="#b3e59f"/><path d="m77.472656 319.902344c.410156-17.75 8.160156-28.449219 16.753906-31.554688 5.445313 13.066406 9.347657 29.25 10.953126 45.804688 1.527343 16.464844-.214844 29.738281-7.4375 35.8125-12.542969-12.613282-20.769532-32.410156-20.269532-50.0625zm0 0" fill="#b3e59f"/><path d="m280.160156 496.59375c2.113282 0 4.226563-.804688 5.839844-2.417969 3.226562-3.226562 3.226562-8.453125 0-11.675781l-47.589844-47.589844c-7.25-7.257812-16.21875-11.976562-25.925781-13.644531-79.742187-13.699219-138.636719-69.667969-157.558594-149.726563-20.023437-84.765624 5.976563-175.804687 88.558594-233.609374 3.730469-2.613282 32.636719-16.628907 29.933594-20.300782s-27.105469 6.488282-30.96875 8.945313c-90.835938 57.804687-125.117188 157.636719-103.59375 248.761719 20.484375 86.710937 84.347656 147.347656 170.832031 162.203124 6.320312 1.085938 12.214844 4.21875 17.046875 9.046876l47.589844 47.589843c1.609375 1.613281 3.722656 2.417969 5.835937 2.417969zm0 0" fill="#b3e59f"/><path d="m29.925781 248.949219c-10.328125-15.828125-20.675781-25.441407-29.925781-24.484375-.078125 21.015625 7.726562 44.855468 20.503906 60.171875 9.808594 11.863281 19.898438 16.75 27.769532 16.535156 3.40625-.09375 5.820312-3.425781 4.609374-6.609375-5.730468-15.117188-13.675781-31.28125-22.957031-45.613281zm0 0" fill="#ccf49f"/><path d="m48.460938 119.890625c-.796876-19.195313-4.585938-33.082031-12.941407-37.394531-10.90625 17.8125-16.179687 42.453125-12.9375 62.558594 2.410157 15.351562 8.4375 25.035156 15.148438 29.285156 2.964843 1.878906 6.941406.191406 7.511719-3.269532 2.632812-15.929687 3.871093-33.96875 3.21875-51.179687zm0 0" fill="#ccf49f"/><path d="m170.886719 7.160156c20.222656-7.261718 41.585937-8.007812 57.21875-5 3.554687.683594 4.148437 5.558594.816406 6.980469-13.984375 5.953125-31.855469 11.917969-49.941406 18.410156-18.410157 6.460938-34.316407 12.234375-47.09375 15.183594-3.316407.765625-5.730469-3.019531-3.746094-5.792969 7.769531-10.847656 22.316406-22.609375 42.746094-29.78125zm0 0" fill="#ccf49f"/><path d="m79.890625 368.847656c-17.316406-7.644531-31.023437-10.089844-38.398437-4.152344 10.855468 17.878907 30.433593 33.671876 50.195312 39.378907 15.34375 4.507812 27.105469 2.871093 33.789062-1.789063 2.757813-1.917968 2.617188-6.105468-.171874-7.972656-13.960938-9.359375-29.8125-18.511719-45.414063-25.464844zm0 0" fill="#ccf49f"/>
    <path d="m222.96875 190.433594v-49.546875h-24.773438c-4.5625 0-8.257812 3.695312-8.257812 8.257812v41.289063c0 27.367187 22.179688 49.550781 49.546875 49.550781h33.03125c-27.363281 0-49.546875-22.183594-49.546875-49.550781zm0 0" fill="#ffd064"/><path d="m297.289062 339.078125h-82.578124c-4.5625 0-8.257813 3.699219-8.257813 8.261719v41.289062h99.09375v-41.289062c0-4.5625-3.695313-8.261719-8.257813-8.261719zm0 0" fill="#c38c66"/><path d="m222.96875 347.949219v-8.871094h-8.257812c-4.5625 0-8.257813 3.699219-8.257813 8.261719v41.289062h99.09375v-15.90625h-57.804687c-13.683594 0-24.773438-11.089844-24.773438-24.773437zm0 0" fill="#b57f5f"/><path d="m256 260.625h-16.515625c-6.839844 0-12.386719 5.546875-12.386719 12.390625 0 6.839844 5.546875 12.386719 12.386719 12.386719h16.515625zm0 0" fill="#ffd064"/></svg>